<?xml version="1.0" encoding="utf-8"?>
<!-- Generator: Adobe Illustrator 21.0.0, SVG Export Plug-In . SVG Version: 6.00 Build 0)  -->
<svg version="1.1" id="Layer_1" xmlns="http://www.w3.org/2000/svg" xmlns:xlink="http://www.w3.org/1999/xlink" x="0px" y="0px"
	 viewBox="0 0 377 142" style="enable-background:new 0 0 377 142;" xml:space="preserve">
<style type="text/css">
	.st0{fill:none;}
	.st1{fill:#1E39AC;}
	.st2{fill:#216EF7;}
	.st3{fill:#105BFA;}
	.st4{font-family:'GothamBold';}
	.st5{font-size:48px;}
	.st6{letter-spacing:-2;}
	.st7{fill:#262626;}
	.st8{fill:#FFFFFF;}
	.st9{font-size:32px;}
</style>
<path class="st0" d="M299.8,69H299l1.8,0.6C300.6,69.3,300.3,69,299.8,69z"/>
<path class="st1" d="M300.8,69.6L311,73l3.7-3.7c0.2-0.2,0.5-0.3,0.8-0.3h-15.7C300.3,69,300.6,69.3,300.8,69.6z"/>
<path class="st2" d="M301,70.2v9.9c0,1.1,1.3,1.6,2,0.8l8-8l-10.2-3.4C300.9,69.8,301,70,301,70.2z"/>
<text transform="matrix(1 0 0 1 16.665 103.0024)" class="st3 st4 st5 st6">Campus</text>
<g>
	<text transform="matrix(1 0 0 1 201.0068 103.0024)" class="st7 st4 st5 st6">Rep</text>
</g>
<path class="st3" d="M355.5,29h-51.2c-17.2,12-18.6,31-18.2,40h9.9h0.8h15.7h15.7h10.5C355.3,56.5,356,37.3,355.5,29z"/>
<path class="st2" d="M304.3,29h-19.1c-0.7,0-1.2,0.5-1.2,1.2v37.6c0,0.7,0.5,1.2,1.2,1.2h0.9C285.6,60,287,41,304.3,29z"/>
<path class="st2" d="M355.8,29h-0.4c0.5,8.3-0.2,27.5-16.8,40h17.1c0.7,0,1.2-0.5,1.2-1.2V30.2C357,29.5,356.5,29,355.8,29z"/>
<text transform="matrix(1 0 0 1 311.1914 60.1006)" class="st8 st4 st9 st6">it</text>
<path class="st2" d="M356,64"/>
</svg>
