<?xml version="1.0" encoding="UTF-8" standalone="no"?>
<svg width="38px" height="26px" viewBox="0 0 38 26" version="1.1" xmlns="http://www.w3.org/2000/svg" xmlns:xlink="http://www.w3.org/1999/xlink">
    <!-- Generator: Sketch 46.2 (44496) - http://www.bohemiancoding.com/sketch -->
    <title>behance</title>
    <desc>Created with Sketch.</desc>
    <defs></defs>
    <g id="Social-Icons" stroke="none" stroke-width="1" fill="none" fill-rule="evenodd">
        <g id="behance" transform="translate(-1.000000, -7.000000)">
            <rect id="Rectangle" x="0" y="0" width="40" height="40"></rect>
            <path d="M18.200724,9.6647194 C18.9062354,10.7301283 19.2612097,11.9990423 19.2612097,13.4810381 C19.2612097,15.0061291 18.9062354,16.2343421 18.1918496,17.1608887 C17.7880663,17.6804252 17.2001401,18.1568665 16.4214152,18.5854242 C17.6039234,19.0522888 18.4935778,19.7873013 19.0992527,20.7928558 C19.7004904,21.7960161 20,23.0194407 20,24.4559471 C20,25.9355487 19.6583372,27.2667114 18.9683559,28.4398583 C18.5312938,29.2179659 17.9833022,29.8763647 17.3288183,30.4078721 C16.590028,31.0183873 15.720341,31.4349741 14.7131014,31.662421 C13.7058617,31.8898678 12.6165343,32 11.4384633,32 L1,32 L1,7 L12.1950023,7 C15.0214853,7.04788355 17.0204344,7.93372917 18.200724,9.6647194 L18.200724,9.6647194 Z M6,11 L6,17 L11.6172566,17 C12.6172566,17 13.4336283,16.7734375 14.0619469,16.3229167 C14.6836283,15.875 15,15.078125 15,13.9375 C15,12.6692708 14.5862832,11.8333333 13.7588496,11.4244792 C13.0442478,11.1432292 12.1349558,11 11.0287611,11 L6,11 L6,11 Z M6,21 L6,28 L11.9242814,28 C12.9829399,28 13.807899,27.8466236 14.3968217,27.5398707 C15.4671652,26.9665948 16,25.8753592 16,24.2636494 C16,22.893319 15.4858612,21.9579741 14.4482356,21.4450431 C13.8663239,21.1609195 13.0530498,21.0100575 12.0084132,21 L6,21 L6,21 Z M34.5175631,13.8841128 C35.7162658,14.4727073 36.7018657,15.4032238 37.4765828,16.6732202 C38.1847052,17.7942362 38.6397683,19.0935401 38.8462115,20.571132 C38.9660817,21.4381487 39.0171376,22.6861644 38.9949394,24.3151789 L26.5084538,24.3151789 C26.5817078,26.2079619 27.1743997,27.5341312 28.302068,28.2936867 C28.9879923,28.767493 29.8115454,29.0019538 30.7749472,29.0019538 C31.7916246,29.0019538 32.6240569,28.7162047 33.2611452,28.1398217 C33.6118767,27.8272072 33.9182118,27.39492 34.1845902,26.8405178 L38.7596385,26.8405178 C38.6397683,27.9590915 38.0848133,29.0947613 37.0992134,30.2524118 C35.565318,32.0841373 33.4143128,33 30.6528571,33 C28.3708825,33 26.3552862,32.228233 24.6171674,30.6798144 C22.8679495,29.1338381 22,26.6158261 22,23.1331054 C22,19.8628648 22.7858162,17.3595067 24.3574485,15.6132617 C25.9335205,13.8743436 27.9757546,13 30.4863706,13 C31.9780894,13 33.3233001,13.2930761 34.5175631,13.8841128 L34.5175631,13.8841128 Z M27.2371371,18.0782396 C26.5817764,18.797066 26.1678643,19.7726161 26,21 L34,21 C33.9172176,19.6894866 33.501006,18.6968215 32.7651624,18.0171149 C32.0201207,17.3398533 31.1026157,17 30.0080483,17 C28.8192009,17 27.8924978,17.3594132 27.2371371,18.0782396 L27.2371371,18.0782396 Z M25,11 L35,11 L35,8 L25,8 L25,11 Z" id="Shape" fill="#FFFFFF"></path>
        </g>
    </g>
</svg>