<?xml version="1.0" encoding="utf-8"?>
<!-- Generator: Adobe Illustrator 21.0.0, SVG Export Plug-In . SVG Version: 6.00 Build 0)  -->
<svg version="1.1" id="Layer_1" xmlns="http://www.w3.org/2000/svg" xmlns:xlink="http://www.w3.org/1999/xlink" x="0px" y="0px"
	 viewBox="0 0 120.3 132.7" style="enable-background:new 0 0 120.3 132.7;" xml:space="preserve">
<style type="text/css">
	.st0{fill:#FCC947;}
	.st1{fill:#CC9202;}
	.st2{fill:#CC9302;}
	.st3{fill:#CD9406;}
	.st4{fill:#CC9303;}
	.st5{fill:#74868E;}
	.st6{fill:#778990;}
	.st7{fill:#788A91;}
	.st8{fill:#F5E0AC;}
	.st9{fill:#E0A91E;}
	.st10{fill:#EAB42C;}
</style>
<path class="st0" d="M87.3,62.2c3.2-1.5,3.4-4.6,4-7.5c1.2-6.6,4.7-11.5,10.9-14.2c6.9,0.8,8,2.7,5.3,9c-3.4,7.9-4.8,16.2-4.9,24.7
	c-0.1,6-0.5,11.9-1.2,17.9c-0.6,5.2-3,9.8-5.1,14.4c-4.2,6.6-10,11.2-17.1,14.4c-12.3,5.3-25.2,2.3-34-8.6
	c-8.6-10.6-14.2-23.2-21.3-34.8c-4.1-6.7-7.9-13.5-11.7-20.3c-2.9-5.4-2.1-8,3-11.7c3.6,0.3,6.2,2.3,8,5.2c4.8,8,9.6,15.9,13.8,24.1
	c0.3,1.1,0.2,2.3,0.3,3.4c0.1,0.7,0.4,1.1,0.2,0.4c0,0,0.2-0.1,0.3-0.2c1.4-1.9,1.6-3.3,0.1-5.7c-5.2-8.3-10-16.9-15.1-25.3
	c-0.1-1.4-0.1-2.8-0.7-4.1c-1.6-2.7-3.2-5.4-4.7-8.2c-2.3-4.3-1.5-7.9,2.8-10.6c3.9-0.8,6.4,1.4,8.2,4.3c7.1,11.5,13.8,23.2,20.3,35
	c0.6,1.1,0.2,4.2,2.6,2.9c2-1.1-0.4-2.5-1-3.6c-7.1-11.9-13.6-24-21-35.7c-0.4-0.7-0.8-1.5-0.2-2.3c-1-3.9-2.7-7.9,1.9-10.9
	c4.8-2.2,7.6,0.6,9.7,4.3C48,30.9,55.3,43.2,62.2,55.8c0.8,1.4,0.9,4,3.6,2.3c-7.5-11.6-14-23.7-21-35.5c-0.6-0.9-1.4-2-0.5-3.2
	c2.1-2.2,1.6-6.6,5.8-7c4-0.1,6.5,2,8.3,5.2C66,30.9,73.8,44.1,81.4,57.4c1.4,2.5,1.2,4.7-0.4,7c-4.8,7.2-5.4,15.2-4,23.4
	c-0.2-2.9-0.2-5.8-0.1-8.6c0.7-4.8,2.2-9.2,5-13.2C83.2,64.1,84.7,62.3,87.3,62.2z"/>
<path class="st1" d="M76.2,89.3c-2.4-9.1-1.6-17.8,3.9-25.7c1.4-2.1,1.4-3.5,0.1-5.8c-7.4-12.5-14.6-25-21.6-37.6
	c-2-3.7-4.7-6.3-8.5-7.8c5.1-2.1,7.6-1.3,10.5,3.9c8.9,15.3,17.8,30.7,26.6,46c-5.7,4.3-8.1,10.4-9.2,17.1c-1,2.5-0.2,5.1-0.5,7.6
	C77.5,87.9,78.2,89.4,76.2,89.3z"/>
<path class="st2" d="M44.3,19.3c7.9,12.9,14.6,26.5,23.4,39.2c-0.9,0.8-2.8,1.5-4.6,2.2C57.6,49,50.5,38.2,44.3,27
	c-1.5-2.7-3.3-5.4-4.8-8.2c-1.9-3.5-4.6-5.1-8.5-4.6C37.1,10.5,40,11.6,44.3,19.3z"/>
<path class="st2" d="M29.1,25.2c7.9,11.3,14,23.7,21.1,35.5c1.2,2,2.4,3.9,4.7,5.4c-2.1,1.4-4,2.7-6.5,4.4c1-5-1.8-8.1-3.7-11.4
	C39.7,49.9,34.2,41,29,31.9c-2.1-3.7-4.7-6.3-8.8-7.3C23.4,22.6,26.3,23,29.1,25.2z"/>
<path class="st3" d="M96.3,106.6c-1-0.6-0.6-1.4-0.2-2.1c4.2-7.9,4.8-16.5,4.9-25.1c0.1-11.2,1.2-22.2,6.3-32.4
	c2.7-5.4-3.3-4.3-5.2-6.4c2-1,4.1-1.5,6.3-0.9c2.6,0.8,4.1,2.3,2.6,5.2c-5.6,9.9-6.2,20.9-6.6,31.9c-0.3,6.6-0.3,13.3-2.3,19.8
	C101,100.3,99.7,104,96.3,106.6z"/>
<path class="st4" d="M23.2,46.4c5.4,7.1,9.2,15.2,13.8,22.8c0.4,0.7,0.6,1.8,1.2,2.1c4.7,3.1,1.8,6-0.1,9c-3.2-0.6-0.2-3.7-2-4.9
	c-4.2-7.3-8.4-14.5-12.5-21.9c-2-3.6-5-6-8.5-8c1.3-0.3,2.5-0.7,3.8-1C20.4,45.2,22.4,44.3,23.2,46.4z"/>
<path class="st5" d="M84.9,47.5c-1.2-12.2-6.4-22.4-15.9-31C82.8,19.2,90.2,33.9,84.9,47.5z"/>
<path class="st5" d="M31,109.5c-13.1-4.2-20.6-16.8-16.5-29.2c2.5,12.1,8.5,21.1,17.7,28C32.4,109.3,32.1,109.8,31,109.5z"/>
<path class="st6" d="M82.9,15.4c10.4,1.4,15.6,11.7,12.6,25.3C93.6,30.5,90.7,22.1,82.9,15.4z"/>
<path class="st7" d="M12,104.4c6.7,5.8,13.6,11.3,23.4,12.5C26,121,15.7,115.4,12,104.4z"/>
<path class="st8" d="M23.2,46.4c-1.4-0.6-2.8-1.2-4.2-1.9c1-0.5,2.4,0.2,3.1-1.1C23.1,44.2,24,44.9,23.2,46.4z"/>
<path class="st9" d="M76.2,89.3c2.4-3-0.6-6.9,1.9-9.9c0,4,0,8,0,12.1C76.6,91.2,76.6,90.1,76.2,89.3z"/>
<path class="st10" d="M36.1,75.4c1.9,1.1,0.1,3.7,2,4.9c-0.5,0.6-1.1,2.8-1.8,0.4C35.7,79,36.1,77.1,36.1,75.4z"/>
</svg>
