<?xml version="1.0" encoding="UTF-8" standalone="no"?>
<svg width="20px" height="20px" viewBox="0 0 20 20" version="1.1" xmlns="http://www.w3.org/2000/svg" xmlns:xlink="http://www.w3.org/1999/xlink">
    <!-- Generator: Sketch 46.2 (44496) - http://www.bohemiancoding.com/sketch -->
    <title>Shape</title>
    <desc>Created with Sketch.</desc>
    <defs></defs>
    <g id="Social-Icons" stroke="none" stroke-width="1" fill="none" fill-rule="evenodd">
        <g id="linkedin" transform="translate(-685.000000, -252.000000)" fill="#FFFFFF">
            <path d="M685.504468,258.413113 L689.402634,258.413113 L689.402634,271.998719 L685.504468,271.998719 L685.504468,258.413113 Z M687.354186,256.713792 L687.325964,256.713792 C685.914864,256.713792 685,255.675247 685,254.360097 C685,253.018056 685.94191,252 687.381232,252 C688.819379,252 689.703669,253.015495 689.731891,254.356256 C689.731891,255.671405 688.819379,256.713792 687.354186,256.713792 L687.354186,256.713792 Z M705,272 L700.579727,272 L700.579727,264.96837 C700.579727,263.128185 699.888288,261.873223 698.367827,261.873223 C697.204845,261.873223 696.55809,262.719682 696.257056,263.537969 C696.144167,263.82994 696.161806,264.238443 696.161806,264.648226 L696.161806,272 L691.78269,272 C691.78269,272 691.839135,259.54514 691.78269,258.413113 L696.161806,258.413113 L696.161806,260.545268 C696.420508,259.613011 697.819849,258.282495 700.052916,258.282495 C702.823377,258.282495 705,260.237931 705,264.444615 L705,272 L705,272 Z" id="Shape"></path>
        </g>
    </g>
</svg>