<?xml version="1.0" encoding="utf-8"?>
<!-- Generator: Adobe Illustrator 21.0.0, SVG Export Plug-In . SVG Version: 6.00 Build 0)  -->
<svg version="1.1" id="Layer_1" xmlns="http://www.w3.org/2000/svg" xmlns:xlink="http://www.w3.org/1999/xlink" x="0px" y="0px"
	 viewBox="0 0 70 95.4" style="enable-background:new 0 0 70 95.4;" xml:space="preserve">
<g>
	<path d="M62.1,32.5c-0.6,4.3,0.7,8.9,3.3,13.7c6.1,11.4,3.6,26.5-5.2,36.3c-10,11-24.2,14.5-37.7,9.2c-12.2-4.8-20.7-17.1-21-30.2
		C1.3,55,2.5,48.9,6,43.5c2.3-3.5,1.7-7.4,1.7-11.1c-0.1-8.6,1.5-16.5,7.7-23c8.2-8.5,19.2-10.9,30.2-6.5c10,4,16.4,13.9,16.5,25.1
		C62.1,29.2,62.1,30.3,62.1,32.5z M8,60C7.9,75.3,19.8,87.6,34.8,87.7c14.9,0.1,27.6-12.2,27.8-27c0.2-14.9-12.1-27.4-27.1-27.6
		C20.1,33,8.1,44.8,8,60z M55.7,27.8C55.5,15.9,46.5,7,34.7,7.1C23.2,7.3,14.2,16.9,14.1,29c0,3.7,0.6,4.4,4,2.4
		C28.9,25,39.9,24.9,51,30.6C55.9,33.1,55.8,33.2,55.7,27.8z"/>
	<path d="M43.1,55.8c-0.2,0.6-0.1,1.9-0.7,2.5c-3.9,4.1-3.4,9.1-3.3,14c0,2.4-1,3.7-3.5,3.8c-2.6,0-4.2-1-4-3.8
		c0.3-5.1-0.6-9.7-3.3-14.2c-1.6-2.7-0.6-5.8,1.8-8.1c2.4-2.3,5.2-2.8,8.3-1.5C41.3,49.8,42.9,52.1,43.1,55.8z"/>
</g>
</svg>
